<?xml version="1.0" encoding="utf-8"?>
<!-- Generator: Adobe Illustrator 19.2.0, SVG Export Plug-In . SVG Version: 6.00 Build 0)  -->
<svg version="1.1"
	 id="svg3375" xmlns:cc="http://creativecommons.org/ns#" xmlns:dc="http://purl.org/dc/elements/1.1/" xmlns:rdf="http://www.w3.org/1999/02/22-rdf-syntax-ns#" xmlns:svg="http://www.w3.org/2000/svg"
	 xmlns="http://www.w3.org/2000/svg" xmlns:xlink="http://www.w3.org/1999/xlink" x="0px" y="0px" viewBox="0 0 234.8 184.3"
	 style="enable-background:new 0 0 234.8 184.3;" xml:space="preserve">
<style type="text/css">
	.st0{fill:#CCCCCC;}
	.st1{fill:#A6D6F0;}
	.st2{fill:#631D20;}
</style>
<g id="g5749" transform="translate(-133.61659,-257.42316)">
	<path id="path5808" d="M251,257.4l-27.2,6.5H196l-0.9,0.9l-61.4,61.4l41.1,41.1l19.4-19.4v93.8h113.8V348l19.4,19.4l41.1-41.1
		l-62.4-62.4h-27.8L251,257.4z"/>
	<path id="path5806" class="st0" d="M251,264l18.4,4.4l-18.4,11l-18.4-11L251,264z"/>
	<path id="path5804" class="st1" d="M198.6,270.3h24.7l5.4,3.2h-24L154.1,324l-2.3,2.3l2.3,2.3l25.2,25.2l-4.6,4.6l-32-32
		L198.6,270.3L198.6,270.3z"/>
	<path id="path5802" class="st1" d="M278.8,270.3h24.7l56,56l-32,32l-4.6-4.6l25.2-25.2l2.3-2.3l-2.3-2.3l-50.5-50.5h-24
		L278.8,270.3z"/>
	<path id="path5751" class="st2" d="M206,276.7H234l17,10.1l17-10.1h28.1l49.6,49.6l-25.2,25.2l-18.9-18.9v102.8h-101V332.5
		l-18.9,18.9l-25.2-25.2L206,276.7L206,276.7z"/>
</g>
</svg>
