<?xml version="1.0" encoding="utf-8"?>
<!-- Generator: Adobe Illustrator 19.2.0, SVG Export Plug-In . SVG Version: 6.00 Build 0)  -->
<svg version="1.1"
	 id="svg3375" xmlns:cc="http://creativecommons.org/ns#" xmlns:dc="http://purl.org/dc/elements/1.1/" xmlns:rdf="http://www.w3.org/1999/02/22-rdf-syntax-ns#" xmlns:svg="http://www.w3.org/2000/svg"
	 xmlns="http://www.w3.org/2000/svg" xmlns:xlink="http://www.w3.org/1999/xlink" x="0px" y="0px" viewBox="0 0 234.8 184.3"
	 style="enable-background:new 0 0 234.8 184.3;" xml:space="preserve">
<style type="text/css">
	.st0{fill:#CCCCCC;}
	.st1{fill:#AC0229;}
	.st2{fill:#004AA9;}
</style>
<g id="g5670" transform="translate(-133.61659,-257.42316)">
	<path id="path5707" d="M251,257.4l-27.2,6.5H196l-0.9,0.9l-61.4,61.4l41.1,41.1l19.4-19.4v93.8h113.8V348l19.4,19.4l41.1-41.1
		l-62.4-62.4h-27.8L251,257.4z"/>
	<path id="path5705" class="st0" d="M251,264l18.4,4.4l-18.4,11l-18.4-11L251,264z"/>
	<path id="path5703" class="st1" d="M198.6,270.3l-49.1,49.1l32,32l18.9-18.9v102.8h10.4v-165H198.6z M292.7,270.3v165h8.8V332.5
		l18.9,18.9l32-32l-49.1-49.1H292.7z M147.3,321.7l-4.6,4.6l32,32l4.6-4.6L147.3,321.7z M354.8,321.7l-32,32l4.6,4.6l32-32
		L354.8,321.7z"/>
	<path id="path5701" class="st2" d="M215.7,270.3h7.6l27.7,16.5l27.7-16.5h9.2v165h-72.2L215.7,270.3L215.7,270.3z"/>
</g>
</svg>
