<?xml version="1.0" encoding="utf-8"?>
<!-- Generator: Adobe Illustrator 19.2.0, SVG Export Plug-In . SVG Version: 6.00 Build 0)  -->
<svg version="1.1"
	 id="svg3375" xmlns:cc="http://creativecommons.org/ns#" xmlns:dc="http://purl.org/dc/elements/1.1/" xmlns:rdf="http://www.w3.org/1999/02/22-rdf-syntax-ns#" xmlns:svg="http://www.w3.org/2000/svg"
	 xmlns="http://www.w3.org/2000/svg" xmlns:xlink="http://www.w3.org/1999/xlink" x="0px" y="0px" viewBox="0 0 234.8 184.3"
	 style="enable-background:new 0 0 234.8 184.3;" xml:space="preserve">
<style type="text/css">
	.st0{fill:#CCCCCC;}
	.st1{fill:#2B459C;}
	.st2{fill:#FFFFFF;}
</style>
<g id="g5635" transform="translate(-133.61659,-257.42316)">
	<path id="path5668" d="M251,257.4l-27.2,6.5h-13.1H196l-0.9,0.9l-61.4,61.4l41.1,41.1l19.4-19.4v93.8h113.8V348l19.4,19.4
		l41.1-41.1l-62.4-62.4h-14.8h-13.1L251,257.4z"/>
	<path id="path5666" class="st0" d="M251,264l17.6,4.2c-0.6,0.3-1,0.5-1.6,0.8c-5.2,2.3-11.8,4.5-16,4.5c-4.2,0-10.8-2.2-16-4.5
		c-0.6-0.3-1-0.5-1.6-0.8L251,264z"/>
	<path id="path5664" class="st1" d="M198.6,270.3h12.1h12.6c1,0.6,4.2,2.4,9,4.5c5.6,2.5,12.4,5.1,18.6,5.1c6.2,0,13-2.6,18.6-5.1
		c4.8-2.1,8.1-4,9-4.5h12.6h12.1l49.1,49.1l-32,32l-18.9-18.9v102.8h-101V332.5l-18.9,18.9l-32-32L198.6,270.3L198.6,270.3z"/>
	<path id="path5662" class="st2" d="M147.3,321.7l32,32l-4.6,4.6l-32-32L147.3,321.7L147.3,321.7z"/>
	<path id="path5637" class="st2" d="M354.8,321.7l4.6,4.6l-32,32l-4.6-4.6L354.8,321.7z"/>
</g>
</svg>
