<?xml version="1.0" encoding="utf-8"?>
<!-- Generator: Adobe Illustrator 19.2.0, SVG Export Plug-In . SVG Version: 6.00 Build 0)  -->
<svg version="1.1"
	 id="svg3375" xmlns:cc="http://creativecommons.org/ns#" xmlns:dc="http://purl.org/dc/elements/1.1/" xmlns:rdf="http://www.w3.org/1999/02/22-rdf-syntax-ns#" xmlns:svg="http://www.w3.org/2000/svg"
	 xmlns="http://www.w3.org/2000/svg" xmlns:xlink="http://www.w3.org/1999/xlink" x="0px" y="0px" viewBox="0 0 234.8 184.3"
	 style="enable-background:new 0 0 234.8 184.3;" xml:space="preserve">
<style type="text/css">
	.st0{fill:#CCCCCC;}
	.st1{fill:#FB8D0F;}
</style>
<g id="g5586" transform="translate(-133.61659,-257.42316)">
	<path id="path5615" d="M251,257.4l-27.2,6.5H196l-0.9,0.9l-61.4,61.4l41.1,41.1l19.4-19.4v93.8h113.8V348l19.4,19.4l41.1-41.1
		l-62.4-62.4h-27.8L251,257.4z"/>
	<path id="path5613" class="st0" d="M251,264l18.4,4.4l-18.4,11l-18.4-11L251,264z"/>
	<path id="path5611" d="M198.6,270.3h15.6l-20.1,14.4v54.3l-12.5,12.5l-32-32L198.6,270.3z"/>
	<path id="path5609" d="M287.9,270.3h15.6l49.1,49.1l-32,32l-12.5-12.5v-54.3L287.9,270.3z"/>
	<path id="path5607" class="st1" d="M225.9,271.9v163.5h23.5V285.9L225.9,271.9L225.9,271.9z M276.1,271.9l-23.5,14v149.5h23.5
		V271.9z M222.7,272.1L200.5,288v44.6v7.7v95.1h22.2V272.1z M279.3,272.1v163.3h22.2v-95.1v-7.7V288L279.3,272.1z"/>
	<path id="path5605" class="st1" d="M147.3,321.7l32,32l-4.6,4.6l-32-32L147.3,321.7L147.3,321.7z"/>
	<path id="path5588" class="st1" d="M354.8,321.7l4.6,4.6l-32,32l-4.6-4.6L354.8,321.7z"/>
</g>
</svg>
