<?xml version="1.0" encoding="utf-8"?>
<!-- Generator: Adobe Illustrator 19.2.0, SVG Export Plug-In . SVG Version: 6.00 Build 0)  -->
<svg version="1.1"
	 id="svg3375" xmlns:cc="http://creativecommons.org/ns#" xmlns:dc="http://purl.org/dc/elements/1.1/" xmlns:rdf="http://www.w3.org/1999/02/22-rdf-syntax-ns#" xmlns:svg="http://www.w3.org/2000/svg"
	 xmlns="http://www.w3.org/2000/svg" xmlns:xlink="http://www.w3.org/1999/xlink" x="0px" y="0px" viewBox="0 0 234.8 184.3"
	 style="enable-background:new 0 0 234.8 184.3;" xml:space="preserve">
<style type="text/css">
	.st0{fill:#CCCCCC;}
	.st1{fill:#D1002B;}
	.st2{fill:#FFFFFF;}
</style>
<g id="g5154" transform="translate(-133.61659,-257.42316)">
	<path id="path5234" d="M251,257.4l-27.2,6.5H196l-0.9,0.9l-61.4,61.4l41.1,41.1l19.4-19.4v93.8h16.6h97.2V348l19.4,19.4l41.1-41.1
		l-62.4-62.4h-27.8L251,257.4z"/>
	<path id="path5232" class="st0" d="M251,264l18.4,4.4l-18.4,11l-18.4-11L251,264z"/>
	<path id="path5230" class="st1" d="M198.6,270.3h15.6l-20.1,14.4v53.6v0.7l-12.5,12.5l-32-32L198.6,270.3z"/>
	<path id="path5228" class="st1" d="M287.9,270.3h15.6l49.1,49.1l-32,32l-12.5-12.5v-0.7v-53.6L287.9,270.3z"/>
	<path id="path5226" class="st2" d="M224.3,270.9l26.7,15.9l26.7-15.9l23.8,17v44.6v2.7l-0.9-0.4l-8-3.7l-13.4-6.3l-11.6-5.4
		l-1.8-0.9l-14.8-6.9l-14.8,6.9l-13.4,6.3l-13.4,6.3l-8.9,4.2v-2.7V288L224.3,270.9L224.3,270.9z"/>
	<path id="path5224" class="st1" d="M251,318.6l10.2,4.8v111.9h-20.5V323.4L251,318.6z"/>
	<path id="path5222" class="st2" d="M147.3,321.7l32,32l-4.6,4.6l-32-32L147.3,321.7L147.3,321.7z"/>
	<path id="path5220" class="st2" d="M354.8,321.7l4.6,4.6l-32,32l-4.6-4.6L354.8,321.7z"/>
	<path id="path5218" class="st2" d="M234.4,326.4v108.9h-13.7V332.9l4.9-2.3L234.4,326.4z"/>
	<path id="path5216" class="st2" d="M267.7,326.4l8.9,4.2l4.9,2.3v102.5h-13.7V326.4z"/>
	<path id="path5214" class="st1" d="M214.3,335.9v99.5h-3.5h-10.2v-93l11.6-5.4L214.3,335.9z"/>
	<path id="path5156" class="st1" d="M287.8,335.9l2.2,1l11.6,5.4v93h-13.7V335.9z"/>
</g>
</svg>
