<?xml version="1.0" encoding="utf-8"?>
<!-- Generator: Adobe Illustrator 19.2.0, SVG Export Plug-In . SVG Version: 6.00 Build 0)  -->
<svg version="1.1"
	 id="svg3375" xmlns:cc="http://creativecommons.org/ns#" xmlns:dc="http://purl.org/dc/elements/1.1/" xmlns:rdf="http://www.w3.org/1999/02/22-rdf-syntax-ns#" xmlns:svg="http://www.w3.org/2000/svg"
	 xmlns="http://www.w3.org/2000/svg" xmlns:xlink="http://www.w3.org/1999/xlink" x="0px" y="0px" viewBox="0 0 234.8 184.3"
	 style="enable-background:new 0 0 234.8 184.3;" xml:space="preserve">
<style type="text/css">
	.st0{fill:#CCCCCC;}
	.st1{fill:#D70020;}
	.st2{fill:#FFFFFF;}
</style>
<g id="g5828" transform="translate(-133.61659,-257.42316)">
	<path id="path5830" d="M251,257.4l-27.2,6.5H196l-0.9,0.9l-61.4,61.4l41.1,41.1l19.4-19.4v93.8h113.8V348l19.4,19.4l41.1-41.1
		l-62.4-62.4h-27.8L251,257.4z"/>
	<path id="path5832" class="st0" d="M251,264l18.4,4.4l-18.4,11l-18.4-11L251,264z"/>
	<path id="path5896" class="st1" d="M198.6,270.3l-49.1,49.1l12.6,12.6l32-32v-15.4l20.1-14.4H198.6z"/>
	<path id="path5834" class="st2" d="M194.1,304.6l-29.7,29.7l17.2,17.2l12.5-12.5V304.6L194.1,304.6z"/>
	<path id="path5900" class="st1" d="M287.9,270.3l20.1,14.4V300l32,32l12.6-12.6l-49.1-49.1H287.9z"/>
	<path id="path5836" class="st2" d="M307.9,304.6v34.4l12.5,12.5l17.2-17.2L307.9,304.6z"/>
	<path id="path5838" class="st2" d="M224.3,270.9l26.7,15.9l26.7-15.9l23.8,17v44.6v7.7v95.1h-101v-95.1v-7.7V288L224.3,270.9
		L224.3,270.9z"/>
	<path id="path5840" class="st2" d="M147.3,321.7l32,32l-4.6,4.6l-32-32L147.3,321.7L147.3,321.7z"/>
	<path id="path5842" class="st2" d="M354.8,321.7l4.6,4.6l-32,32l-4.6-4.6L354.8,321.7z"/>
	<path id="path5844" class="st1" d="M218.8,274.9L200.5,288v44.6v7.7v95.1h18.3V274.9z M283.3,274.9v160.5h18.3v-95.1v-7.7V288
		L283.3,274.9z M240.3,280.4v154.9h21.5V280.4l-10.7,6.4L240.3,280.4z"/>
	<path id="path5870" d="M303.1,295.3l36.8,36.8l-2.3,2.3L306.3,303v37.3h-3.2V295.3z M198.9,295.2L162.1,332l2.3,2.3l31.3-31.3v37.3
		h3.2L198.9,295.2L198.9,295.2z"/>
</g>
</svg>
