<?xml version="1.0" encoding="utf-8"?>
<!-- Generator: Adobe Illustrator 19.2.0, SVG Export Plug-In . SVG Version: 6.00 Build 0)  -->
<svg version="1.1"
	 id="svg3375" xmlns:cc="http://creativecommons.org/ns#" xmlns:dc="http://purl.org/dc/elements/1.1/" xmlns:rdf="http://www.w3.org/1999/02/22-rdf-syntax-ns#" xmlns:svg="http://www.w3.org/2000/svg"
	 xmlns="http://www.w3.org/2000/svg" xmlns:xlink="http://www.w3.org/1999/xlink" x="0px" y="0px" viewBox="0 0 234.8 184.3"
	 style="enable-background:new 0 0 234.8 184.3;" xml:space="preserve">
<style type="text/css">
	.st0{fill:#CCCCCC;}
	.st1{fill:#1D2733;}
	.st2{fill:#FFFFFF;}
</style>
<g id="g5506" transform="translate(-133.61659,-257.42316)">
	<path id="path5549" d="M251,257.4l-27.2,6.5H196l-0.9,0.9l-61.4,61.4l41.1,41.1l19.4-19.4v93.8h113.8V348l19.4,19.4l41.1-41.1
		l-62.4-62.4h-27.8L251,257.4z"/>
	<path id="path5547" class="st0" d="M251,264l18.4,4.4l-18.4,11l-18.4-11L251,264z"/>
	<path id="path5545" class="st1" d="M199.7,270.3h23.6l19.3,11.5l-42.9,5.7L199.7,270.3L199.7,270.3z"/>
	<path id="path5543" class="st1" d="M278.8,270.3h23.6v17.3l-42.9-5.7L278.8,270.3z"/>
	<path id="path5541" class="st2" d="M194.9,274v19l54.3-7.3h3.6l54.3,7.3v-19l45.4,45.4l-32,32l-18.9-18.9v102.8h-101V332.5
		l-18.9,18.9l-32-32L194.9,274z"/>
	<path id="path5539" class="st1" d="M147.3,321.7l32,32l-4.6,4.6l-32-32L147.3,321.7L147.3,321.7z"/>
	<path id="path5508" class="st1" d="M354.8,321.7l4.6,4.6l-32,32l-4.6-4.6L354.8,321.7z"/>
</g>
</svg>
